<svg xmlns="http://www.w3.org/2000/svg" xmlns:xlink="http://www.w3.org/1999/xlink" width="215.659" height="172.551" viewBox="0 0 215.659 172.551">
  <defs>
    <clipPath id="clip-path">
      <rect id="Retângulo_43" data-name="Retângulo 43" width="215.659" height="172.551" fill="#fff"/>
    </clipPath>
  </defs>
  <g id="Grupo_24" data-name="Grupo 24" transform="translate(0 35)">
    <g id="Grupo_23" data-name="Grupo 23" transform="translate(0 -35)" clip-path="url(#clip-path)">
      <path id="Caminho_32" data-name="Caminho 32" d="M60.254,41.519c0,22.931-13.486,41.519-30.123,41.519S0,64.45,0,41.519,13.494,0,30.131,0,60.254,18.588,60.254,41.519" transform="translate(0 0.003)" fill="#fff"/>
      <path id="Caminho_33" data-name="Caminho 33" d="M78.254,41.519c0,22.931-13.486,41.519-30.123,41.519S18,64.45,18,41.519,31.494,0,48.131,0,78.254,18.588,78.254,41.519" transform="translate(137.405 0.003)" fill="#fff"/>
      <path id="Caminho_34" data-name="Caminho 34" d="M6.616,52.15C44.043,20.741,96.121,7.929,144.141,18.3a8.077,8.077,0,1,1-3.281,15.817c-43.721-12-92.475-2.59-128.908,24.822-4.369,3.272-9.583-3.255-5.336-6.786" transform="translate(38.477 112.72)" fill="#fff"/>
    </g>
  </g>
</svg>
